<svg xmlns="http://www.w3.org/2000/svg" viewBox="0 0 24 24" fill="#FF00FF">
  <path d="M12 2C6.477 2 2 6.477 2 12c0 5.523 4.477 10 10 10s10-4.477 10-10c0-5.523-4.477-10-10-10zm2.5 14.5c-.401.404-.994.5-1.5.5-.506 0-1.099-.096-1.5-.5-.39-.39-.39-1.024 0-1.414.39-.39 1.024-.39 1.414 0 .019.02.086.086.086.086s.067-.066.086-.086c.39-.39 1.024-.39 1.414 0 .39.39.39 1.024 0 1.414zm-5.543-4.886c-.548 0-.996-.445-.996-.993 0-.549.448-.993.996-.993s.996.444.996.993c0 .548-.448.993-.996.993zm6.086 0c-.548 0-.996-.445-.996-.993 0-.549.448-.993.996-.993s.996.444.996.993c0 .548-.448.993-.996.993zm1.184-3.999C15.547 5.725 13.5 5 12 5s-3.547.725-4.227 2.615c-.177.492-.72.729-1.212.552-.492-.177-.729-.72-.552-1.212C7.097 4.494 9.682 3 12 3s4.903 1.494 5.991 3.955c.177.492-.06 1.035-.552 1.212-.105.038-.212.056-.317.056-.392 0-.761-.231-.913-.608z"/>
</svg>
