<svg xmlns="http://www.w3.org/2000/svg" viewBox="0 0 24 24" fill="#DC382D">
  <path d="M10.5 2.661l.54.997-1.797.644 2.409.218.403 1.032-2.26 1.883c-.476.401-.86 1.231-.86 1.853v1.17l-2.101 1.024V8.512c0-.393-.253-.754-.545-.807l-2.512-.462v-1.687l1.91-1.43.118-1.286 2.322-.579.166.402h.001l.401-.975 1.805-.027zm-1.778 8.182v2.666c0 .393-.252.845-.544.898l-2.513.303v1.927L3.7 19.305V16.01c0-.393.253-.783.545-.836l2.511-.446v-2.129l1.967-.756zm6.959.098v2.129l2.51.446c.293.053.545.443.545.836v3.295l-1.966-2.668v-1.926l-2.513-.304c-.292-.053-.544-.505-.544-.898v-2.666l1.968.756zM19.279 7.243l1.91 1.43v1.687l-2.512.462c-.292.053-.544.414-.544.807v2.97L16.03 13.575v-1.17c0-.621-.384-1.451-.859-1.853l-2.26-1.883.402-1.032 2.41-.218-1.798-.644.54-.997 1.805.027.402.975h.001l.166-.402 2.321.579.119 1.286zm-2.668-5.53l.5 1.084-.802 1.078.899.83-.303 1.421 1.726-.319.844 1.016.39-1.194 1.588-.5-.5-1.084.802-1.08-.898-.828.302-1.422-1.725.319-.844-1.015-.391 1.193-1.588.5zm-7.845 5.947l.838.149c.292.053.364.284.161.518l-.251.289c-.203.233-.6.407-.881.386l-.841-.061a.4.4 0 01-.329-.447l.03-.778c.013-.308.274-.443.582-.301l.691.245zM23 11.247l-1.966.703v-2.128l-2.101-1.024v1.17c0 .622-.385 1.452-.86 1.854l-2.26 1.882.402 1.033 2.41.218-1.798.644.54.996 1.805-.027.401-.975.167.402 2.321-.579.12-1.286L24 12.796l-1 .049v-1.598zm-20.966.703L1 11.247v1.598l-1-.049 1.91 1.334.119 1.286 2.321.579.166-.402.402.975 1.805.027.54-.996-1.798-.644 2.41-.218.401-1.033-2.26-1.882c-.475-.402-.859-1.232-.859-1.854v-1.17L3.034 9.822v2.128zm3.319 2.698l.84.061c.282.021.678-.152.881-.386l.252-.289c.203-.234.13-.465-.161-.518l-.839-.149-.69-.245c-.309-.142-.57-.007-.583.301l-.03.778c-.13.215.13.434.33.447z"/>
</svg>
