<svg xmlns="http://www.w3.org/2000/svg" viewBox="0 0 24 24" fill="#362D59">
  <path d="M12 2C6.477 2 2 6.477 2 12c0 5.523 4.477 10 10 10s10-4.477 10-10c0-5.523-4.477-10-10-10zm0 18.25c-4.549 0-8.25-3.701-8.25-8.25S7.451 3.75 12 3.75 20.25 7.451 20.25 12s-3.701 8.25-8.25 8.25zm.01-7.944l-5.037 2.915a.326.326 0 0 0-.119.445l.75 1.301a.327.327 0 0 0 .445.119l4.953-2.858 4.953 2.858a.327.327 0 0 0 .445-.119l.75-1.301a.326.326 0 0 0-.119-.445l-5.036-2.915V7.25c0-.18-.145-.326-.326-.326h-1.5c-.18 0-.326.145-.326.326v5.056z"/>
</svg>
