<svg xmlns="http://www.w3.org/2000/svg" viewBox="0 0 24 24" fill="#000000">
  <path d="M12 2C6.48 2 2 6.48 2 12s4.48 10 10 10 10-4.48 10-10S17.52 2 12 2zm4.92 13.15c-.35.6-.8 1.1-1.35 1.5-.55.4-1.21.7-1.95.9-.74.2-1.53.3-2.37.3-.74 0-1.44-.08-2.08-.24-.65-.16-1.21-.38-1.7-.66-.48-.28-.86-.62-1.13-1.01-.27-.39-.4-.83-.4-1.31 0-.32.08-.6.24-.84.16-.24.39-.36.68-.36.22 0 .43.07.6.22.17.15.3.38.38.7.09.36.2.68.33.96.13.28.3.51.51.7.21.19.47.34.78.45.31.11.68.16 1.12.16.63 0 1.15-.14 1.54-.41.39-.27.59-.62.59-1.03 0-.32-.1-.58-.31-.79-.21-.21-.48-.37-.81-.48-.33-.11-.76-.23-1.29-.35-.72-.17-1.35-.36-1.88-.57-.53-.21-.96-.5-1.29-.85-.33-.35-.5-.84-.5-1.46 0-.54.15-1.03.45-1.48.3-.45.72-.8 1.25-1.06.53-.26 1.14-.46 1.84-.59.7-.13 1.44-.19 2.21-.19.67 0 1.27.08 1.82.24.55.16 1.01.38 1.39.67.38.28.67.61.87.98.2.37.3.77.3 1.21 0 .31-.08.6-.24.85-.16.25-.38.37-.67.37-.24 0-.43-.06-.58-.18-.14-.12-.29-.33-.44-.63-.2-.43-.44-.76-.72-1.01-.28-.25-.75-.37-1.41-.37-.61 0-1.1.12-1.49.37-.39.25-.58.54-.58.89 0 .22.06.4.19.55.13.15.3.28.52.39.22.11.47.2.74.27.27.07.7.17 1.29.3.76.17 1.45.36 2.08.58.63.22 1.17.5 1.62.83.45.33.8.73 1.05 1.19.25.46.37 1.03.37 1.7 0 .65-.17 1.24-.52 1.77z"/>
</svg>
